<?xml version="1.0" encoding="UTF-8" standalone="no"?>
<!-- Created with Inkscape (http://www.inkscape.org/) -->

<svg
   width="151"
   height="93.128807"
   viewBox="0 0 39.952083 24.64033"
   version="1.1"
   id="svg5"
   inkscape:version="1.2 (56b05e47e7, 2022-06-09, custom)"
   sodipodi:docname="MACHINE_ICON.svg"
   xml:space="preserve"
   xmlns:inkscape="http://www.inkscape.org/namespaces/inkscape"
   xmlns:sodipodi="http://sodipodi.sourceforge.net/DTD/sodipodi-0.dtd"
   xmlns="http://www.w3.org/2000/svg"
   xmlns:svg="http://www.w3.org/2000/svg"><sodipodi:namedview
     id="namedview7"
     pagecolor="#505050"
     bordercolor="#eeeeee"
     borderopacity="1"
     inkscape:showpageshadow="0"
     inkscape:pageopacity="0"
     inkscape:pagecheckerboard="0"
     inkscape:deskcolor="#505050"
     inkscape:document-units="mm"
     showgrid="false"
     inkscape:zoom="7.0050711"
     inkscape:cx="73.732299"
     inkscape:cy="58.600404"
     inkscape:window-width="1920"
     inkscape:window-height="946"
     inkscape:window-x="0"
     inkscape:window-y="0"
     inkscape:window-maximized="1"
     inkscape:current-layer="layer1" /><defs
     id="defs2" /><g
     inkscape:label="Layer 1"
     inkscape:groupmode="layer"
     id="layer1"
     transform="translate(-0.19342157,-10.627062)"><ellipse
       style="fill:#aa3a3a;fill-opacity:1;stroke-width:0.155263"
       id="path655"
       cx="2.1391063"
       cy="24.023552"
       rx="1.8788121"
       ry="1.8618819" /><ellipse
       style="fill:#aa3a3a;fill-opacity:1;stroke-width:0.155263"
       id="path655-6"
       cx="9.8010654"
       cy="24.023012"
       rx="1.8788121"
       ry="1.8618819" /><ellipse
       style="fill:#aa3a3a;fill-opacity:1;stroke-width:0.155263"
       id="path655-3"
       cx="6.0198522"
       cy="24.070375"
       rx="1.8788121"
       ry="1.8618819" /><ellipse
       style="fill:#aa3a3a;fill-opacity:1;stroke-width:0.155263"
       id="path655-7"
       cx="30.390432"
       cy="23.943638"
       rx="1.8788121"
       ry="1.8618819" /><ellipse
       style="fill:#aa3a3a;fill-opacity:1;stroke-width:0.155263"
       id="path655-6-5"
       cx="38.052391"
       cy="23.943098"
       rx="1.8788121"
       ry="1.8618819" /><ellipse
       style="fill:#aa3a3a;fill-opacity:1;stroke-width:0.155263"
       id="path655-3-3"
       cx="34.271179"
       cy="23.990461"
       rx="1.8788121"
       ry="1.8618819" /><rect
       style="fill:#000000;stroke-width:0.125298"
       id="rect224"
       width="16.291637"
       height="16.39805"
       x="11.210307"
       y="16.446669" /><path
       id="path1466-3-3"
       style="fill:#000000;fill-opacity:1;stroke-width:0.155283"
       d="m 30.399406,22.155655 a 1.7757342,1.7757342 0 0 0 -1.775599,1.775598 1.7757342,1.7757342 0 0 0 1.775599,1.775599 1.7757342,1.7757342 0 0 0 1.775598,-1.775599 1.7757342,1.7757342 0 0 0 -1.775598,-1.775598 z m -0.0073,0.326329 a 1.2870724,1.4998405 0 0 1 1.287321,1.499848 1.2870724,1.4998405 0 0 1 -1.287321,1.499848 1.2870724,1.4998405 0 0 1 -1.286835,-1.499848 1.2870724,1.4998405 0 0 1 1.286835,-1.499848 z m 1.881833,1.468163 a 1.8868505,1.8868505 0 0 1 -1.886851,1.88685 1.8868505,1.8868505 0 0 1 -1.88685,-1.88685 1.8868505,1.8868505 0 0 1 1.88685,-1.886851 1.8868505,1.8868505 0 0 1 1.886851,1.886851 z" /><path
       id="path1466-3-7-5"
       style="fill:#000000;fill-opacity:1;stroke-width:0.155283"
       d="m 34.249682,22.181738 a 1.7757342,1.7757342 0 0 0 -1.775598,1.775598 1.7757342,1.7757342 0 0 0 1.775598,1.775599 1.7757342,1.7757342 0 0 0 1.775599,-1.775599 1.7757342,1.7757342 0 0 0 -1.775599,-1.775598 z m -0.0073,0.326329 a 1.2870724,1.4998405 0 0 1 1.287321,1.499848 1.2870724,1.4998405 0 0 1 -1.287321,1.499848 1.2870724,1.4998405 0 0 1 -1.286835,-1.499848 1.2870724,1.4998405 0 0 1 1.286835,-1.499848 z m 1.881833,1.468163 a 1.8868505,1.8868505 0 0 1 -1.886851,1.88685 1.8868505,1.8868505 0 0 1 -1.88685,-1.88685 1.8868505,1.8868505 0 0 1 1.88685,-1.886851 1.8868505,1.8868505 0 0 1 1.886851,1.886851 z" /><path
       id="path1466-3-5-6"
       style="fill:#000000;fill-opacity:1;stroke-width:0.155283"
       d="m 38.070122,22.135626 a 1.7757342,1.7757342 0 0 0 -1.775599,1.775598 1.7757342,1.7757342 0 0 0 1.775599,1.775599 1.7757342,1.7757342 0 0 0 1.775599,-1.775599 1.7757342,1.7757342 0 0 0 -1.775599,-1.775598 z m -0.0073,0.326329 a 1.2870724,1.4998405 0 0 1 1.287321,1.499848 1.2870724,1.4998405 0 0 1 -1.287321,1.499848 1.2870724,1.4998405 0 0 1 -1.286835,-1.499848 1.2870724,1.4998405 0 0 1 1.286835,-1.499848 z m 1.881833,1.468163 a 1.8868505,1.8868505 0 0 1 -1.88685,1.88685 1.8868505,1.8868505 0 0 1 -1.886851,-1.88685 1.8868505,1.8868505 0 0 1 1.886851,-1.886851 1.8868505,1.8868505 0 0 1 1.88685,1.886851 z" /><path
       id="path1466-3"
       style="fill:#000000;fill-opacity:1;stroke:none;stroke-width:0.155;stroke-dasharray:none;stroke-opacity:1"
       d="M 2.1499586,22.251114 A 1.7757342,1.7757342 0 0 0 0.37435993,24.026712 1.7757342,1.7757342 0 0 0 2.1499586,25.802311 1.7757342,1.7757342 0 0 0 3.9255574,24.026712 1.7757342,1.7757342 0 0 0 2.1499586,22.251114 Z m -0.00729,0.326329 A 1.2870724,1.4998405 0 0 1 3.4299898,24.077291 1.2870724,1.4998405 0 0 1 2.1426686,25.577139 1.2870724,1.4998405 0 0 1 0.85583373,24.077291 1.2870724,1.4998405 0 0 1 2.1426686,22.577443 Z m 1.8818333,1.468163 a 1.8868505,1.8868505 0 0 1 -1.8868504,1.88685 1.8868505,1.8868505 0 0 1 -1.88685047,-1.88685 1.8868505,1.8868505 0 0 1 1.88685047,-1.886851 1.8868505,1.8868505 0 0 1 1.8868504,1.886851 z" /><path
       id="path1466-3-7"
       style="fill:#000000;fill-opacity:1;stroke-width:0.155283"
       d="m 6.0002355,22.277197 a 1.7757342,1.7757342 0 0 0 -1.7755987,1.775598 1.7757342,1.7757342 0 0 0 1.7755987,1.775599 1.7757342,1.7757342 0 0 0 1.7755988,-1.775599 1.7757342,1.7757342 0 0 0 -1.7755988,-1.775598 z m -0.00729,0.326329 a 1.2870724,1.4998405 0 0 1 1.2873212,1.499848 1.2870724,1.4998405 0 0 1 -1.2873212,1.499848 1.2870724,1.4998405 0 0 1 -1.2868349,-1.499848 1.2870724,1.4998405 0 0 1 1.2868349,-1.499848 z m 1.8818333,1.468163 a 1.8868505,1.8868505 0 0 1 -1.8868504,1.88685 1.8868505,1.8868505 0 0 1 -1.8868505,-1.88685 1.8868505,1.8868505 0 0 1 1.8868505,-1.886851 1.8868505,1.8868505 0 0 1 1.8868504,1.886851 z" /><path
       id="path1466-3-5"
       style="fill:#000000;fill-opacity:1;stroke-width:0.155283"
       d="m 9.8206749,22.231085 a 1.7757342,1.7757342 0 0 0 -1.7755987,1.775598 1.7757342,1.7757342 0 0 0 1.7755987,1.775599 1.7757342,1.7757342 0 0 0 1.7755991,-1.775599 1.7757342,1.7757342 0 0 0 -1.7755991,-1.775598 z m -0.00729,0.326329 A 1.2870724,1.4998405 0 0 1 11.100706,24.057262 1.2870724,1.4998405 0 0 1 9.8133849,25.55711 1.2870724,1.4998405 0 0 1 8.52655,24.057262 1.2870724,1.4998405 0 0 1 9.8133849,22.557414 Z m 1.8818331,1.468163 a 1.8868505,1.8868505 0 0 1 -1.8868502,1.88685 1.8868505,1.8868505 0 0 1 -1.8868505,-1.88685 1.8868505,1.8868505 0 0 1 1.8868505,-1.886851 1.8868505,1.8868505 0 0 1 1.8868502,1.886851 z" /><circle
       id="path433"
       style="fill:#000000;stroke:#000000;stroke-width:0.264583"
       cx="16.027483"
       cy="10.76379"
       r="0.0044369795" /><rect
       style="fill:#ffffff;fill-opacity:1;stroke-width:0.12048"
       id="rect591"
       width="15.344144"
       height="6.1953301"
       x="11.639507"
       y="17.068663" /><rect
       style="fill:#808080;fill-opacity:1;stroke-width:0.102173"
       id="rect3207"
       width="14.781199"
       height="3.3052742"
       x="11.913052"
       y="17.848192" /><path
       style="fill:#000000;fill-opacity:1;stroke:none;stroke-width:0.142039"
       d="m 16.455253,18.437654 c -0.582563,0.3906 -1.121247,2.31557 -1.704477,1.278356 h -0.142045 l -0.426118,2.272632 -0.710196,-0.426118 0.284078,2.272632 -0.852238,-0.142044 0.994278,2.130595 h -0.852239 c 0.371304,0.677584 1.807852,1.315201 1.136317,1.988552 l 1.988554,0.852238 -0.568158,0.568158 v 0.142044 h 2.272635 l -0.284081,0.852239 c 0.744516,-0.0068 2.229482,-0.986167 2.130595,0.142044 l 1.988553,-1.278356 0.142043,0.710199 1.420396,-1.846517 0.284081,0.56816 h 0.142045 l 0.284078,-2.130595 0.852239,0.284079 -0.426121,-2.130593 0.994278,0.142045 -1.136317,-2.130596 0.852238,-0.142044 C 24.819256,21.798612 23.300641,21.05786 24.125394,20.568251 23.703181,19.806663 22.915202,19.860609 22.13684,19.716015 l 0.568158,-0.710199 v -0.142044 l -2.414674,-0.142045 0.284081,-0.710199 -1.988556,0.710199 -0.142043,-0.852238 c -0.698195,0.183909 -1.650246,1.646026 -1.988553,0.56816 z"
       id="path1717" /><circle
       style="fill:#ffffff;fill-opacity:1;stroke-width:0.155"
       id="path4440"
       cx="19.123327"
       cy="23.286221"
       r="0.69675797" /><rect
       style="fill:#000000;stroke-width:0.0990829"
       id="rect589"
       width="38.375961"
       height="0.85561395"
       x="0.9157815"
       y="23.499226" /><rect
       style="fill:#ffffff;fill-opacity:1;stroke-width:0.0985654"
       id="rect1408"
       width="11.735489"
       height="2.3959641"
       x="11.83752"
       y="24.839741" /><rect
       style="fill:#ffffff;fill-opacity:1;stroke-width:0.155213"
       id="rect1410"
       width="11.619268"
       height="4.3353953"
       x="11.980447"
       y="27.972876" /><rect
       style="fill:#ffffff;fill-opacity:1;stroke-width:0.124353"
       id="rect1412"
       width="2.3162587"
       height="7.3917465"
       x="24.549088"
       y="24.84621" /><rect
       style="fill:#000000;fill-opacity:1;stroke-width:0.168019"
       id="rect1741"
       width="15.238774"
       height="2.2601311"
       x="12.214973"
       y="14.323622" /><rect
       style="fill:#ffffff;fill-opacity:1;stroke-width:0.13587"
       id="rect1412-5"
       width="14.23071"
       height="1.4362918"
       x="12.705321"
       y="14.868549" /><rect
       style="fill:#000000;fill-opacity:1;stroke-width:0.165"
       id="rect1743"
       width="6.749095"
       height="6.7157106"
       x="27.008274"
       y="15.149679" /><rect
       style="fill:#ffffff;fill-opacity:1;stroke-width:0.165"
       id="rect1745"
       width="5.7231483"
       height="2.9073727"
       x="27.537209"
       y="15.787533" /><rect
       style="fill:#808080;fill-opacity:1;stroke-width:0.165"
       id="rect2215"
       width="5.6976919"
       height="2.1328526"
       x="27.595633"
       y="19.191917" /><rect
       style="fill:#808080;fill-opacity:1;stroke-width:0.113265"
       id="rect3205"
       width="11.731524"
       height="1.3253648"
       x="11.836894"
       y="25.897194" /></g></svg>
