<?xml version="1.0" encoding="UTF-8" standalone="no"?>
<!-- Created with Inkscape (http://www.inkscape.org/) -->

<svg
   width="150"
   height="150"
   viewBox="0 0 39.687499 39.6875"
   version="1.1"
   id="svg5"
   xml:space="preserve"
   inkscape:version="1.2 (56b05e47e7, 2022-06-09, custom)"
   sodipodi:docname="SUN AND MOON"
   xmlns:inkscape="http://www.inkscape.org/namespaces/inkscape"
   xmlns:sodipodi="http://sodipodi.sourceforge.net/DTD/sodipodi-0.dtd"
   xmlns="http://www.w3.org/2000/svg"
   xmlns:svg="http://www.w3.org/2000/svg"><sodipodi:namedview
     id="namedview7"
     pagecolor="#505050"
     bordercolor="#eeeeee"
     borderopacity="1"
     inkscape:showpageshadow="0"
     inkscape:pageopacity="0"
     inkscape:pagecheckerboard="0"
     inkscape:deskcolor="#505050"
     inkscape:document-units="mm"
     showgrid="false"
     inkscape:zoom="1.7512678"
     inkscape:cx="139.89865"
     inkscape:cy="3.7115968"
     inkscape:window-width="1920"
     inkscape:window-height="946"
     inkscape:window-x="0"
     inkscape:window-y="0"
     inkscape:window-maximized="1"
     inkscape:current-layer="layer3" /><defs
     id="defs2" /><g
     inkscape:groupmode="layer"
     id="layer3"
     inkscape:label="NIGTH"
     style="display:inline"><path
       id="path2544"
       style="fill:#000000;fill-opacity:1;stroke:none;stroke-width:0.165"
       d="m 19.330254,17.604849 c 0.170268,0.411872 0.811813,1.541618 1.011343,1.716903 0.249168,0.218893 1.1401,0.731365 1.529688,0.893035 -0.388894,0.172532 -1.38182,0.708733 -1.640588,1.015828 -0.252566,0.299735 -0.74374,1.223466 -0.917604,1.572306 -0.122217,-0.33572 -0.666722,-1.316041 -0.949894,-1.624834 -0.308935,-0.336886 -1.342952,-0.787884 -1.617636,-0.927672 0.327018,-0.168862 1.161972,-0.642436 1.553006,-0.970237 0.273511,-0.229282 0.830421,-1.26922 1.031685,-1.675329 z m 7.69035,-10.1438819 c 0.335025,0.8104103 1.597346,3.0333289 1.989946,3.3782249 0.49027,0.4307 2.243292,1.439054 3.009856,1.757159 -0.7652,0.339479 -2.718907,1.394523 -3.228066,1.998771 -0.496955,0.589766 -1.463403,2.407323 -1.805502,3.09371 -0.240478,-0.660571 -1.311859,-2.589477 -1.869037,-3.197066 -0.607868,-0.662866 -2.642427,-1.550263 -3.182903,-1.825313 0.643449,-0.332256 2.286327,-1.264073 3.055737,-1.909064 0.538166,-0.451142 1.633957,-2.497351 2.029969,-3.2964219 z m 4.82322,11.3356849 c 0.09007,0.217878 0.429447,0.81551 0.534997,0.908235 0.131809,0.115794 0.603109,0.38689 0.809199,0.472413 -0.205723,0.09127 -0.730978,0.374916 -0.867865,0.537369 -0.133607,0.158559 -0.393436,0.647209 -0.485409,0.831744 -0.06465,-0.177594 -0.352693,-0.696181 -0.50249,-0.859531 -0.163426,-0.178212 -0.710417,-0.416788 -0.855724,-0.490736 0.172991,-0.08933 0.614679,-0.339846 0.821534,-0.513251 0.144686,-0.121289 0.43929,-0.671413 0.545758,-0.886243 z M 10.644647,0.73792161 C 8.0342465,4.2748885 4.7258509,15.347482 11.93186,24.239799 20.955621,35.375246 33.718588,32.735176 39.029976,29.05409 34.722631,36.711116 20.623664,43.845077 8.8285024,34.357655 -4.0766226,23.977435 0.17172466,6.4029148 10.644647,0.73792161 Z" /></g><g
     inkscape:groupmode="layer"
     id="layer2"
     inkscape:label="day"
     transform="matrix(2.0745845,0,0,2.0745845,-15.984251,-14.820912)"><path
       id="path2099-3"
       style="display:none;fill:#e9e9e9;fill-opacity:1;stroke:none;stroke-width:0.165"
       transform="matrix(0.48202424,0,0,0.48202424,7.7047963,7.1440387)"
       d="m 29.500738,3.1854457 -1.007283,5.1202 L 25.278253,6.38462 Z M 39.440277,19.973086 34.53717,21.759317 34.51828,18.013985 Z M 36.73864,10.504574 33.359295,14.480889 31.4916,11.234415 Z M 20.015742,39.470969 21.777224,34.558917 H 18.031843 Z M 0.34897665,19.842874 5.2610286,18.081392 v 3.74538 z M 10.380975,3.261536 11.388258,8.381736 14.60346,6.46071 Z m 19.162097,33.448482 -1.007283,-5.1202 -3.215202,1.921026 z m -19.155901,-0.251702 1.007283,-5.1202 3.215202,1.921026 z M 19.94867,0.4126695 21.710152,5.3247208 h -3.74538 z M 3.0971978,29.209891 l 3.379345,-3.976315 1.867694,3.246474 z m 33.6319782,0.275898 -3.379345,-3.976315 -1.867694,3.246474 z M 3.1149035,10.605568 6.4942483,14.581883 8.3619423,11.335409 Z M 30.559543,19.950877 A 10.768965,10.676833 0 0 1 19.790579,30.627711 10.768965,10.676833 0 0 1 9.0216141,19.950877 10.768965,10.676833 0 0 1 19.790579,9.2740446 10.768965,10.676833 0 0 1 30.559543,19.950877 Z"
       inkscape:label="sun"
       inkscape:export-filename="SUN.svg"
       inkscape:export-xdpi="96"
       inkscape:export-ydpi="96" /></g></svg>
