<?xml version="1.0" encoding="UTF-8"?>
<!-- Created with Inkscape (http://www.inkscape.org/) -->
<svg width="150" height="150" version="1.1" viewBox="0 0 37.5 37.5" xml:space="preserve" xmlns="http://www.w3.org/2000/svg"><path d="m17.68 7.2212c-0.36248 0.49126-0.53917 1.3569-0.23305 1.5658 0.18669 0.1274 0.45791 0.18003 0.81517-0.09573 0.45149-0.34308 0.86354-0.79179 1.3398-1.0684l2.0694-0.070527c-0.47747 0.23786-0.9723 0.89713-0.91346 1.3233 0.03728 0.27001 0.33948 0.48699 0.87297 0.31457 0.52115-0.15938 1.0128-0.4001 1.4937-0.54298l2.0262 0.72679c-0.62318 0.32473-1.3369 0.72093-1.2498 1.1398 0.03795 0.18254 0.2147 0.32492 0.62865 0.36891 0.56839 0.0483 1.0571-0.0059 1.6633 0.01729l1.5778 1.3244c-0.48438 0.09174-0.6508 0.12762-1.0144 0.20817-0.61047 0.13524-0.54056 0.8584-0.0069 1.0345 0.57068 0.18828 1.1485 0.36061 1.6498 0.68725 0.33042 0.53248 0.62764 1.1644 0.95294 1.6997-0.53701-0.03365-1.2313-0.31347-1.5089 0.06543-0.21759 0.29701 0.0629 0.62157 0.46291 1.0433 0.33455 0.23296 0.63387 0.5486 1.0205 0.92339l0.39934 2.0445c-0.41404-0.37571-1.0614-0.78277-1.4504-0.64562-0.23991 0.0846-0.38165 0.39554-0.11586 0.87195 0.26401 0.5016 0.50565 0.96452 0.77901 1.4526l-0.28393 2.0868c-0.31332-0.48528-0.79991-1.046-1.129-1.0153-0.23652 0.02208-0.50036 0.13648-0.42824 0.62948 0.07166 0.53979 0.12785 1.15 0.20173 1.8242l-0.92748 1.7784c-0.21844-0.52252-0.39418-1.2901-0.74078-1.3633-0.3064-0.06477-0.52575 0.0214-0.60814 0.5412-0.11187 0.50945-0.25787 0.98788-0.36918 1.6344-0.53138 0.46465-1.0103 0.82318-1.5203 1.3117-0.07358-0.77751 0.1326-1.4189-0.43803-1.5348-0.3779-0.07672-0.4977 0.14417-0.80264 0.67109-0.22101 0.33991-0.2726 0.50701-0.68276 1.1099l-1.9032 0.72642c0.1034-0.22965 0.24211-0.51137 0.3308-0.77746 0.09874-0.29625 0.13105-0.57709-0.1091-0.82812-0.68264-0.24124-0.68453 0.11376-1.1862 0.43076-0.29174 0.28491-0.51396 0.40521-0.86385 0.73188l-1.9877 1e-3c0.15555-0.21707 0.32965-0.30217 0.58204-0.7647 0.1792-0.32832 0.15846-0.61381 0.0018-0.74406-0.16502-0.1372-0.48073-0.10717-0.86774 0.02244-0.48187 0.14355-0.97763 0.35355-1.4594 0.42534l-1.8424-0.61733c0.63254-0.27637 1.1292-0.64367 1.1656-0.9655 0.02638-0.2329-0.209-0.45352-0.70874-0.54339-0.56276-0.02538-1.131 0.04253-1.6698-0.05068l-1.51-1.3273c0.67529 0.02558 1.3106-0.13716 1.4229-0.37521 0.09184-0.1947 0.04443-0.59005-0.43954-0.78604-0.49937-0.2128-1.1162-0.37431-1.5684-0.64289l-1.0641-1.7665c0.80261 0.17726 1.3004 0.32524 1.561 0.04698 0.23705-0.25302 0.12002-0.57194-0.18484-0.8308-0.40411-0.40444-0.84044-0.65867-1.1864-1.0961l-0.39208-1.9363c0.46772 0.19705 0.87007 0.62834 1.4606 0.40807 0.12897-0.11277 0.34346-0.56068-0.05081-1.0456-0.21223-0.42108-0.53702-0.8199-0.68101-1.2545l0.27662-2.0435c0.34922 0.38484 0.73987 1.1975 1.3224 0.97078 0.51319-0.21669 0.11761-1.1532 0.10549-1.7338-0.09552-0.39237-0.14404-0.77605 0.15396-1.0956l0.76332-1.3411c0.11302 0.51781 0.28625 1.3532 0.8572 1.3176 0.59304-0.03702 0.4959-1.0273 0.68325-1.5926 0.04529-0.40431 0.12157-0.79122 0.50561-1.0053l1.1601-1.0508c-0.36231 0.80164 0.2993 2.4123 1.0567 1.199 0.31635-0.47271 0.55633-1.0375 0.91836-1.4551z" fill="#f25e5e" stroke="#426a8c" stroke-width=".15591"/></svg>
