<?xml version="1.0" encoding="UTF-8" standalone="no"?>
<!-- Created with Inkscape (http://www.inkscape.org/) -->

<svg
   width="150"
   height="92.369003"
   viewBox="0 0 37.500001 23.092251"
   version="1.1"
   id="svg5"
   xml:space="preserve"
   inkscape:version="1.2 (56b05e47e7, 2022-06-09, custom)"
   sodipodi:docname="saw2.svg"
   xmlns:inkscape="http://www.inkscape.org/namespaces/inkscape"
   xmlns:sodipodi="http://sodipodi.sourceforge.net/DTD/sodipodi-0.dtd"
   xmlns="http://www.w3.org/2000/svg"
   xmlns:svg="http://www.w3.org/2000/svg"><sodipodi:namedview
     id="namedview7"
     pagecolor="#505050"
     bordercolor="#eeeeee"
     borderopacity="1"
     inkscape:showpageshadow="0"
     inkscape:pageopacity="0"
     inkscape:pagecheckerboard="0"
     inkscape:deskcolor="#505050"
     inkscape:document-units="mm"
     showgrid="false"
     inkscape:zoom="4.9533333"
     inkscape:cx="81.258412"
     inkscape:cy="51.581427"
     inkscape:window-width="1920"
     inkscape:window-height="946"
     inkscape:window-x="0"
     inkscape:window-y="0"
     inkscape:window-maximized="1"
     inkscape:current-layer="svg5" /><defs
     id="defs2" /><path
     id="path481-1-0"
     style="display:inline;opacity:1;fill:#ffffff;fill-opacity:1;stroke:#000000;stroke-width:1.09746;stroke-dasharray:none;stroke-opacity:1"
     d="m 17.563952,2.6255769 c -0.287379,0.3894821 -0.427459,1.0758083 -0.184765,1.2414251 0.148014,0.1010059 0.363036,0.1427328 0.646277,-0.075896 0.357947,-0.2720023 0.684628,-0.6277455 1.062241,-0.8470734 l 1.621016,-0.046458 c -0.343263,0.287087 -0.751198,0.7018021 -0.70455,1.0396763 0.02956,0.2140663 0.269142,0.3860938 0.692107,0.2493952 0.413179,-0.126363 0.802974,-0.3172031 1.184247,-0.4304811 l 1.606387,0.5762093 c -0.49407,0.2574496 -1.05993,0.5715688 -0.990887,0.903643 0.03009,0.1447191 0.170216,0.2576058 0.498401,0.292481 0.450631,0.038293 0.838101,-0.00468 1.318708,0.013708 l 1.250892,1.0499819 c -0.384024,0.072733 -0.515969,0.1011808 -0.80421,0.1650374 -0.483987,0.1072213 -0.428567,0.6805534 -0.0055,0.820154 0.452443,0.149273 0.91056,0.285894 1.308007,0.544864 0.261964,0.422158 0.497602,0.923181 0.75551,1.34752 -0.425749,-0.02668 -0.976216,-0.248522 -1.196291,0.05187 -0.172512,0.235473 0.04987,0.4927864 0.367005,0.8271694 0.265238,0.184697 0.502545,0.43494 0.809104,0.73208 l 0.316599,1.620951 c -0.328254,-0.297868 -0.84153,-0.620593 -1.149891,-0.511856 -0.190203,0.06707 -0.302576,0.313587 -0.09185,0.691297 0.209309,0.397673 0.400889,0.764685 0.617614,1.151631 l -0.225107,1.654438 c -0.248401,-0.38474 -0.634184,-0.829321 -0.895051,-0.804973 -0.187519,0.01751 -0.396694,0.108207 -0.339516,0.499058 0.05681,0.427952 0.101359,0.911719 0.159935,1.44629 l -0.735319,1.409923 c -0.173182,-0.414266 -0.312513,-1.022782 -0.587301,-1.08087 -0.242917,-0.05135 -0.416821,0.01697 -0.482147,0.429072 -0.08869,0.403903 -0.204443,0.783206 -0.292693,1.295764 -0.421291,0.368385 -0.801005,0.652634 -1.205319,1.039973 -0.05834,-0.616425 0.10513,-1.124956 -0.347275,-1.216798 -0.299604,-0.06082 -0.394582,0.114301 -0.636342,0.532054 -0.17522,0.269485 -0.216124,0.401964 -0.541306,0.879972 l -1.508916,0.575916 c 0.08198,-0.182068 0.19195,-0.405424 0.262266,-0.616382 0.07828,-0.234869 0.103895,-0.457524 -0.08649,-0.656545 -0.541208,-0.191259 -0.542704,0.09019 -0.940473,0.341509 -0.231299,0.225879 -0.407479,0.321258 -0.684871,0.580248 l -1.575916,7.93e-4 c 0.123322,-0.172096 0.261352,-0.239565 0.461453,-0.606262 0.142069,-0.260299 0.125633,-0.486642 0.0014,-0.589906 -0.130828,-0.108773 -0.381132,-0.08497 -0.687962,0.01779 -0.382032,0.113812 -0.775078,0.280303 -1.157067,0.337218 L 12.985453,19.01176 c 0.501492,-0.219108 0.895225,-0.510313 0.92413,-0.765467 0.02091,-0.184649 -0.165698,-0.359557 -0.561904,-0.430811 -0.446164,-0.02012 -0.896705,0.03372 -1.32383,-0.04018 l -1.197113,-1.052318 c 0.535383,0.02028 1.039079,-0.108742 1.128105,-0.297473 0.07281,-0.154365 0.03523,-0.467801 -0.348473,-0.623189 -0.395907,-0.168714 -0.884904,-0.296756 -1.243461,-0.509694 l -0.8436063,-1.40052 c 0.6363203,0.140536 1.0309393,0.25786 1.2376203,0.03725 0.187934,-0.2006 0.09516,-0.453441 -0.146544,-0.658668 C 10.289991,12.950038 9.9440623,12.748485 9.6698105,12.401681 L 9.3589608,10.866557 c 0.3708176,0.156223 0.6898032,0.498155 1.1579742,0.323521 0.102247,-0.08941 0.272303,-0.444513 -0.04028,-0.828965 C 10.308394,10.027278 10.050894,9.7110836 9.9367383,9.3665536 l 0.2193077,-1.620118 c 0.276864,0.305107 0.586578,0.949369 1.048435,0.769647 0.406867,-0.171799 0.09324,-0.914269 0.08363,-1.3745482 -0.07573,-0.3110781 -0.114194,-0.6152619 0.122066,-0.8686079 l 0.605176,-1.0632719 c 0.0896,0.4105305 0.226943,1.0728761 0.6796,1.0446186 0.470173,-0.02935 0.393159,-0.8144625 0.541693,-1.2626565 0.03591,-0.3205453 0.09638,-0.6272888 0.400852,-0.7970498 l 0.919713,-0.8330801 c -0.06002,0.5640021 0.237288,1.91255 0.837777,0.9506252 0.250809,-0.3747757 0.441069,-0.8225167 0.72809,-1.1536556 z"
     sodipodi:nodetypes="cscccscccscccssccscccscccscccscccscccscccccscccscccscccscccccccccccscccccc"
     inkscape:label="saw" /><circle
     style="fill:#ffffff;stroke:#000000;stroke-width:1.38425"
     id="path350"
     cx="18.179834"
     cy="11.576709"
     r="1.3978119" /></svg>
